<svg xmlns="http://www.w3.org/2000/svg" viewBox="0 0 64 64" fill="none">
  <defs>
    <linearGradient id="grad1" x1="0%" y1="0%" x2="100%" y2="100%">
      <stop offset="0%" style="stop-color:#0ea5e9;stop-opacity:1" />
      <stop offset="100%" style="stop-color:#0284c7;stop-opacity:1" />
    </linearGradient>
  </defs>
  
  <!-- Background circle -->
  <circle cx="32" cy="32" r="30" fill="url(#grad1)" opacity="0.1"/>
  
  <!-- Main icon: Cloud with arrow up (deploy symbol) -->
  <path d="M32 16 C26 16 21 20.5 21 26 C18.5 26 16 28.5 16 31 C16 33.5 18.5 36 21 36 L28 36 L28 42 L36 42 L36 36 L43 36 C45.5 36 48 33.5 48 31 C48 28.5 45.5 26 43 26 C43 20.5 38 16 32 16 Z" 
        fill="url(#grad1)" 
        stroke="#0ea5e9" 
        stroke-width="1.5"/>
  
  <!-- Arrow pointing up (deploy action) -->
  <path d="M32 24 L32 38 M28 30 L32 24 L36 30" 
        stroke="#0ea5e9" 
        stroke-width="2" 
        stroke-linecap="round" 
        stroke-linejoin="round" 
        fill="none"/>
  
  <!-- Small dots representing apps -->
  <circle cx="24" cy="44" r="2" fill="#0ea5e9" opacity="0.6"/>
  <circle cx="32" cy="46" r="2" fill="#0ea5e9" opacity="0.6"/>
  <circle cx="40" cy="44" r="2" fill="#0ea5e9" opacity="0.6"/>
</svg>

